<mxfile host="app.diagrams.net" agent="Mozilla/5.0 (Macintosh; Intel Mac OS X 10_15_7) AppleWebKit/537.36 (KHTML, like Gecko) Chrome/130.0.0.0 Safari/537.36" version="24.8.1" pages="2">
  <diagram name="Landmarks" id="f_p_wO5hRyY7_-JQHZzd">
    <mxGraphModel dx="954" dy="505" grid="1" gridSize="10" guides="1" tooltips="1" connect="1" arrows="1" fold="1" page="1" pageScale="1" pageWidth="827" pageHeight="1169" math="0" shadow="0">
      <root>
        <mxCell id="0" />
        <mxCell id="1" parent="0" />
        <mxCell id="qaldWQJMhA26Fa_WVcfU-1" value="" style="rounded=1;whiteSpace=wrap;html=1;" vertex="1" parent="1">
          <mxGeometry x="220" y="90" width="120" height="40" as="geometry" />
        </mxCell>
      </root>
    </mxGraphModel>
  </diagram>
  <diagram id="lhFZfuCOdR1n-xK1n-EE" name="Page-2">
    <mxGraphModel dx="954" dy="505" grid="1" gridSize="10" guides="1" tooltips="1" connect="1" arrows="1" fold="1" page="1" pageScale="1" pageWidth="827" pageHeight="1169" math="0" shadow="0">
      <root>
        <mxCell id="0" />
        <mxCell id="1" parent="0" />
        <mxCell id="hhoEviPGQWJfa1QdBMPv-1" value="&amp;nbsp;visuals" style="rounded=1;whiteSpace=wrap;html=1;verticalAlign=top;align=left;" vertex="1" parent="1">
          <mxGeometry x="510" y="30" width="220" height="110" as="geometry" />
        </mxCell>
        <mxCell id="hhoEviPGQWJfa1QdBMPv-2" value="base" style="rounded=1;whiteSpace=wrap;html=1;" vertex="1" parent="1">
          <mxGeometry x="520" y="60" width="80" height="60" as="geometry" />
        </mxCell>
        <mxCell id="hhoEviPGQWJfa1QdBMPv-3" value="plot" style="rounded=1;whiteSpace=wrap;html=1;" vertex="1" parent="1">
          <mxGeometry x="630" y="60" width="80" height="60" as="geometry" />
        </mxCell>
        <mxCell id="hhoEviPGQWJfa1QdBMPv-4" value="&amp;nbsp;core" style="rounded=1;whiteSpace=wrap;html=1;verticalAlign=top;align=left;" vertex="1" parent="1">
          <mxGeometry x="194" y="30" width="220" height="110" as="geometry" />
        </mxCell>
        <mxCell id="hhoEviPGQWJfa1QdBMPv-5" value="config" style="rounded=1;whiteSpace=wrap;html=1;" vertex="1" parent="1">
          <mxGeometry x="204" y="55" width="80" height="30" as="geometry" />
        </mxCell>
        <mxCell id="hhoEviPGQWJfa1QdBMPv-7" value="utils" style="rounded=1;whiteSpace=wrap;html=1;" vertex="1" parent="1">
          <mxGeometry x="204" y="93" width="80" height="30" as="geometry" />
        </mxCell>
        <mxCell id="hhoEviPGQWJfa1QdBMPv-8" value="&lt;ul&gt;&lt;li&gt;data&lt;/li&gt;&lt;li&gt;profile&lt;/li&gt;&lt;li&gt;time&lt;/li&gt;&lt;/ul&gt;" style="rounded=1;whiteSpace=wrap;html=1;align=left;" vertex="1" parent="1">
          <mxGeometry x="304" y="55" width="80" height="60" as="geometry" />
        </mxCell>
        <mxCell id="hhoEviPGQWJfa1QdBMPv-9" value="&amp;nbsp;cards" style="rounded=1;whiteSpace=wrap;html=1;verticalAlign=top;align=left;" vertex="1" parent="1">
          <mxGeometry x="84" y="240" width="220" height="110" as="geometry" />
        </mxCell>
        <mxCell id="hhoEviPGQWJfa1QdBMPv-11" value="-builder" style="rounded=1;whiteSpace=wrap;html=1;" vertex="1" parent="1">
          <mxGeometry x="94" y="288" width="80" height="30" as="geometry" />
        </mxCell>
        <mxCell id="hhoEviPGQWJfa1QdBMPv-13" value="cardset" style="rounded=1;whiteSpace=wrap;html=1;" vertex="1" parent="1">
          <mxGeometry x="198" y="273" width="80" height="60" as="geometry" />
        </mxCell>
        <mxCell id="hhoEviPGQWJfa1QdBMPv-14" value="&amp;nbsp;analytics" style="rounded=1;whiteSpace=wrap;html=1;verticalAlign=top;align=left;" vertex="1" parent="1">
          <mxGeometry x="450" y="267" width="290" height="153" as="geometry" />
        </mxCell>
        <mxCell id="hhoEviPGQWJfa1QdBMPv-16" value="&amp;nbsp;testing" style="rounded=1;whiteSpace=wrap;html=1;verticalAlign=top;align=left;" vertex="1" parent="1">
          <mxGeometry x="460" y="297" width="100" height="110" as="geometry" />
        </mxCell>
        <mxCell id="hhoEviPGQWJfa1QdBMPv-17" value="cards" style="rounded=1;whiteSpace=wrap;html=1;" vertex="1" parent="1">
          <mxGeometry x="470" y="337" width="80" height="30" as="geometry" />
        </mxCell>
        <mxCell id="hhoEviPGQWJfa1QdBMPv-19" value="operations" style="rounded=1;whiteSpace=wrap;html=1;verticalAlign=top;align=left;" vertex="1" parent="1">
          <mxGeometry x="620" y="297" width="100" height="110" as="geometry" />
        </mxCell>
        <mxCell id="hhoEviPGQWJfa1QdBMPv-20" value="landmarks" style="rounded=1;whiteSpace=wrap;html=1;" vertex="1" parent="1">
          <mxGeometry x="630" y="327" width="80" height="30" as="geometry" />
        </mxCell>
        <mxCell id="hhoEviPGQWJfa1QdBMPv-21" value="TSA" style="rounded=1;whiteSpace=wrap;html=1;" vertex="1" parent="1">
          <mxGeometry x="630" y="367" width="80" height="30" as="geometry" />
        </mxCell>
      </root>
    </mxGraphModel>
  </diagram>
</mxfile>
